<svg id="Layer_1" data-name="Layer 1" xmlns="http://www.w3.org/2000/svg" viewBox="0 0 566.93 566.93"><defs><style>.cls-1{fill:#0c2231;}.cls-2{fill:none;stroke:#f6c277;stroke-miterlimit:10;stroke-width:1.79px;}.cls-3{fill:#f6c277;}.cls-4{isolation:isolate;}</style></defs><rect class="cls-1" x="171.77" y="82.55" width="223.39" height="217.56"/><rect class="cls-2" x="182.54" y="93.03" width="201.86" height="196.58"/><path class="cls-3" d="M372.09,274.52l-1.76-164.25-173.06-.33.17,163.45c3.18-14.06,23.25-41.15,23.25-41.15-3.85-3-7.69-5.47-7.69-5.47l-7,10,.33-117.5,154.33.67,1,116.16-6.36-10.38s-4.83,4-7.78,6.36L366,260.92Z"/><path class="cls-3" d="M227.06,236.31s-17.24,20.75-24.1,37.83l10.37.16a127,127,0,0,1,20.42-32.13Z"/><path class="cls-3" d="M238.27,246.35s-13.89,16.24-17.57,28l10.21-.16s7.2-14.23,14.23-21.76Z"/><path class="cls-3" d="M217.85,221.24l6.2-7s48,33.81,55.9,60.26l-10.71.5S255.51,245.18,217.85,221.24Z"/><path class="cls-3" d="M229.74,209.7l7.19-6.53s38.58,30.46,47.12,46.86c0,0,20.67-31,47.12-47l6.86,6.7s-39.84,28.53-53.81,57.41C284.22,267.11,270.91,236,229.74,209.7Z"/><path class="cls-3" d="M242.54,198.56l6.53-6.27s28.2,20.84,34.65,31.8c0,0,16-20.29,34.14-31.3l6.78,5s-33.22,26.2-40.46,40.42C284.18,238.23,270.75,216.57,242.54,198.56Z"/><path class="cls-3" d="M350.54,221.4l-6.19-7s-48,33.81-55.9,60.25l10.71.5S312.88,245.33,350.54,221.4Z"/><path class="cls-3" d="M341.81,236.36s16.31,21.21,23.18,38.28l-10.38.17a126.82,126.82,0,0,0-20.42-32.13Z"/><path class="cls-3" d="M329.67,246.86s13.89,16.24,17.57,27.95L337,274.64s-7.19-14.22-14.22-21.75Z"/><g class="cls-4"><g class="cls-4"><path d="M194.53,378.07l-.06-25.42L182,373.59h-4.41L165.18,353.2v24.87H156V335.71h8.11L180,362l15.61-26.32h8.05l.12,42.36Z"/><path d="M241.67,369H222l-3.75,9.08H208.2l18.88-42.36h9.69l18.94,42.36H245.42Zm-3.09-7.44-6.72-16.22-6.71,16.22Z"/></g><g class="cls-4"><path d="M299,335.71v42.36h-9.8V360.7H269.92v17.37h-9.81V335.71h9.81v16.7h19.24v-16.7Z"/></g><g class="cls-4"><path d="M372.79,335.71l-13.86,42.36H348.4l-9.32-28.68-9.62,28.68H319l-13.92-42.36h10.17l9.56,29.77,10-29.77h9.07l9.68,30,9.87-30Z"/></g><g class="cls-4"><path d="M411,370.2v7.87h-32.8V335.71h32v7.87H388v9.19h19.66v7.63H388v9.8Z"/></g></g><g class="cls-4"><path d="M133.66,439.44,133.6,414,121.13,435h-4.41l-12.41-20.39v24.87h-9.2V397.08h8.11l15.86,26.32,15.61-26.32h8.05l.12,42.36Z"/><path d="M180.8,430.36H161.13l-3.75,9.08h-10l18.88-42.36h9.69l18.94,42.36H184.55Zm-3.09-7.44L171,406.7l-6.71,16.22Z"/><path d="M226.24,439.44l-8.17-11.8h-9v11.8h-9.8V397.08h18.34c11.31,0,18.39,5.87,18.39,15.37a13.78,13.78,0,0,1-8.71,13.37l9.5,13.62ZM217,405.07h-8v14.76h8c6,0,9-2.78,9-7.38S223,405.07,217,405.07Z"/><path d="M259.15,422.8l-5.68,5.93v10.71h-9.75V397.08h9.75v19.79l18.76-19.79h10.89L265.57,416l18.58,23.48H272.71Z"/><path d="M321.3,431.57v7.87H288.5V397.08h32V405H298.24v9.19h19.67v7.63H298.24v9.8Z"/><path d="M337.88,405.07H324.32v-8h36.92v8H347.68v34.37h-9.8Z"/><path d="M366.5,397.08h9.8v42.36h-9.8Z"/><path d="M425.19,397.08v42.36h-8L396,413.72v25.72h-9.69V397.08h8.11l21.06,25.72V397.08Z"/><path d="M463.86,417.59h9v17.19a29.25,29.25,0,0,1-17.13,5.39c-13.31,0-23.12-9.14-23.12-21.91s9.81-21.91,23.3-21.91c7.44,0,13.62,2.54,17.73,7.32l-6.29,5.81a14.37,14.37,0,0,0-10.95-4.78c-8.24,0-13.86,5.51-13.86,13.56s5.62,13.55,13.73,13.55a15.57,15.57,0,0,0,7.63-1.81Z"/></g><g class="cls-4"><g class="cls-4"><path d="M178,469.64c0-4.71,3.62-8.08,8.48-8.08a8.08,8.08,0,0,1,6.43,2.76l-2.32,2.15a5,5,0,0,0-3.93-1.83,5,5,0,1,0,0,10,5,5,0,0,0,3.93-1.86l2.32,2.15a8,8,0,0,1-6.45,2.79C181.62,477.72,178,474.35,178,469.64Z"/></g><g class="cls-4"><path d="M202.55,465.26v3.22a7.11,7.11,0,0,0-.78-.05c-1.92,0-3.19,1.05-3.19,3.35v5.67H195.1v-12h3.32V467A4.83,4.83,0,0,1,202.55,465.26Z"/></g><g class="cls-4"><path d="M216.21,472.43h-9.08a3.21,3.21,0,0,0,3.44,2.41,4.08,4.08,0,0,0,3-1.16l1.85,2a6.28,6.28,0,0,1-5,1.94c-4.15,0-6.86-2.61-6.86-6.18a6.12,6.12,0,0,1,6.41-6.19,6,6,0,0,1,6.25,6.23C216.28,471.76,216.24,472.14,216.21,472.43Zm-9.13-2H213a3,3,0,0,0-5.92,0Z"/></g><g class="cls-4"><path d="M228.88,470.6v6.85h-3.26V476c-.64,1.1-1.89,1.68-3.66,1.68-2.81,0-4.48-1.56-4.48-3.64s1.49-3.59,5.15-3.59h2.77c0-1.5-.89-2.37-2.77-2.37a5.73,5.73,0,0,0-3.46,1.12l-1.25-2.44a9.3,9.3,0,0,1,5.18-1.45C226.76,465.26,228.88,467,228.88,470.6Zm-3.48,3.06v-1.23H223c-1.63,0-2.14.6-2.14,1.4s.74,1.46,2,1.46A2.57,2.57,0,0,0,225.4,473.66Z"/><path d="M239.77,476.87a5,5,0,0,1-2.83.76c-2.84,0-4.49-1.45-4.49-4.31v-4.93H230.6v-2.68h1.85v-2.93h3.49v2.93h3v2.68h-3v4.89a1.39,1.39,0,0,0,1.49,1.58,2.37,2.37,0,0,0,1.41-.45Z"/><path d="M241.31,461.82a2,2,0,0,1,2.17-1.94,2,2,0,0,1,2.16,1.88,2.17,2.17,0,0,1-4.33.06Zm.43,3.62h3.48v12h-3.48Z"/></g><g class="cls-4"><path d="M260.38,465.44l-5.07,12h-3.59l-5.05-12h3.6l3.32,8.17,3.44-8.17Z"/></g><g class="cls-4"><path d="M273.16,472.43h-9.08a3.21,3.21,0,0,0,3.44,2.41,4.08,4.08,0,0,0,3-1.16l1.85,2a6.28,6.28,0,0,1-4.95,1.94c-4.15,0-6.86-2.61-6.86-6.18a6.12,6.12,0,0,1,6.41-6.19,6,6,0,0,1,6.25,6.23C273.23,471.76,273.19,472.14,273.16,472.43Zm-9.13-2H270a3,3,0,0,0-5.92,0Z"/><path d="M280.89,475.91l1.22-2.72a9.2,9.2,0,0,0,5.16,1.63c2.14,0,3-.72,3-1.68,0-2.92-9.08-.91-9.08-6.72,0-2.65,2.14-4.86,6.58-4.86a10.44,10.44,0,0,1,5.43,1.38l-1.12,2.75a8.76,8.76,0,0,0-4.33-1.23c-2.14,0-3,.8-3,1.78,0,2.88,9.09.9,9.09,6.63,0,2.62-2.17,4.85-6.63,4.85A11.13,11.13,0,0,1,280.89,475.91Z"/><path d="M295.21,471.45c0-3.62,2.79-6.19,6.61-6.19s6.59,2.57,6.59,6.19-2.77,6.18-6.59,6.18S295.21,475.06,295.21,471.45Zm9.67,0a3.08,3.08,0,1,0-3.06,3.32A3,3,0,0,0,304.88,471.45Z"/><path d="M310.73,460.89h3.48v16.56h-3.48Z"/><path d="M329.54,465.44v12h-3.3V476a4.85,4.85,0,0,1-3.73,1.61c-3,0-5.13-1.7-5.13-5.4v-6.79h3.48v6.27c0,2,.89,2.91,2.43,2.91s2.77-1,2.77-3.24v-5.94Z"/><path d="M340.53,476.87a5,5,0,0,1-2.84.76c-2.83,0-4.49-1.45-4.49-4.31v-4.93h-1.85v-2.68h1.85v-2.93h3.49v2.93h3v2.68h-3v4.89a1.39,1.39,0,0,0,1.49,1.58,2.37,2.37,0,0,0,1.41-.45Z"/><path d="M342.06,461.82a2,2,0,0,1,2.17-1.94,2,2,0,0,1,2.16,1.88,2.17,2.17,0,0,1-4.33.06Zm.43,3.62H346v12h-3.48Z"/><path d="M348.31,471.45c0-3.62,2.79-6.19,6.61-6.19s6.59,2.57,6.59,6.19-2.77,6.18-6.59,6.18S348.31,475.06,348.31,471.45Zm9.67,0a3.08,3.08,0,1,0-3.06,3.32A3,3,0,0,0,358,471.45Z"/><path d="M376.1,470.57v6.88h-3.48v-6.34c0-1.94-.89-2.83-2.43-2.83s-2.88,1-2.88,3.23v5.94h-3.48v-12h3.32v1.41a5.27,5.27,0,0,1,4-1.59C374,465.26,376.1,466.91,376.1,470.57Z"/><path d="M378.09,476.33l1.16-2.5a8.13,8.13,0,0,0,4.17,1.16c1.61,0,2.21-.42,2.21-1.09,0-2-7.25.05-7.25-4.75,0-2.28,2.05-3.89,5.56-3.89a9.88,9.88,0,0,1,4.62,1.05l-1.16,2.48a6.92,6.92,0,0,0-3.46-.89c-1.57,0-2.24.49-2.24,1.11,0,2.06,7.26.07,7.26,4.8,0,2.23-2.08,3.82-5.67,3.82A10.26,10.26,0,0,1,378.09,476.33Z"/></g></g></svg>